<svg xmlns="http://www.w3.org/2000/svg" xmlns:xlink="http://www.w3.org/1999/xlink" width="500" zoomAndPan="magnify" viewBox="0 0 375 374.999991" height="500" preserveAspectRatio="xMidYMid meet" version="1.0"><defs><clipPath id="359959a62e"><path d="M 55 52.816406 L 320.335938 52.816406 L 320.335938 322 L 55 322 Z M 55 52.816406 " clip-rule="nonzero"/></clipPath><clipPath id="fbaaeaa309"><path d="M 54.835938 104 L 139 104 L 139 272 L 54.835938 272 Z M 54.835938 104 " clip-rule="nonzero"/></clipPath></defs><rect x="-37.5" width="450" fill="#ffffff" y="-37.499999" height="449.999989" fill-opacity="1"/><rect x="-37.5" width="450" fill="#ffffff" y="-37.499999" height="449.999989" fill-opacity="1"/><rect x="-37.5" width="450" fill="#000000" y="-37.499999" height="449.999989" fill-opacity="1"/><g clip-path="url(#359959a62e)"><path fill="#ed2133" d="M 236.835938 52.972656 L 55.589844 52.972656 L 55.589844 79.265625 L 164.632812 188.191406 L 55.589844 297.117188 L 55.589844 321.910156 L 235.328125 321.910156 L 320.3125 237.019531 L 320.3125 136.359375 Z M 204.492188 187.441406 L 142.824219 125.839844 L 205.246094 125.839844 L 246.609375 167.15625 L 246.609375 207.722656 L 204.492188 249.792969 L 142.070312 249.792969 Z M 292.484375 228.007812 L 223.292969 297.117188 L 94.695312 297.117188 L 115.753906 276.082031 L 215.777344 276.082031 L 272.179688 219.742188 L 272.179688 155.140625 L 217.28125 100.300781 L 117.257812 100.300781 L 96.199219 79.265625 L 224.046875 79.265625 L 292.480469 147.625 L 292.480469 228.007812 Z M 292.484375 228.007812 " fill-opacity="1" fill-rule="nonzero"/></g><g clip-path="url(#fbaaeaa309)"><path fill="#ed2133" d="M 54.835938 104.492188 L 54.835938 143.429688 L 99.648438 188.191406 L 54.835938 232.957031 L 54.835938 271.140625 L 138.246094 187.8125 Z M 54.835938 104.492188 " fill-opacity="1" fill-rule="nonzero"/></g></svg>