<svg xmlns="http://www.w3.org/2000/svg" xmlns:xlink="http://www.w3.org/1999/xlink" width="500" zoomAndPan="magnify" viewBox="0 0 375 374.999991" height="500" preserveAspectRatio="xMidYMid meet" version="1.0"><path fill="#ffffff" d="M 197.09375 41.300781 C 108.773438 35.65625 35.65625 108.769531 41.300781 197.09375 C 45.96875 270.097656 104.9375 329.066406 177.941406 333.734375 C 266.261719 339.378906 339.378906 266.265625 333.734375 177.941406 C 329.066406 104.9375 270.097656 45.96875 197.09375 41.300781 Z M 253.859375 260.21875 C 259.621094 240.421875 263.0625 217.648438 263.523438 193.152344 L 322.625 193.152344 C 321.332031 224.5625 309.273438 253.222656 290.050781 275.574219 C 281.230469 269.394531 268.902344 264.171875 253.859375 260.21875 Z M 84.984375 275.574219 C 65.761719 253.222656 53.703125 224.5625 52.410156 193.152344 L 111.511719 193.152344 C 111.972656 217.648438 115.410156 240.421875 121.175781 260.21875 C 106.128906 264.171875 93.800781 269.394531 84.984375 275.574219 Z M 121.144531 114.914062 C 115.398438 134.691406 111.96875 157.425781 111.507812 181.882812 L 52.410156 181.882812 C 53.699219 150.621094 65.648438 122.082031 84.710938 99.777344 C 93.679688 105.855469 106.09375 111.007812 121.144531 114.914062 Z M 181.882812 181.882812 L 122.78125 181.882812 C 123.265625 158.558594 126.734375 136.542969 132.398438 117.503906 C 147.632812 120.574219 164.523438 122.324219 181.882812 122.640625 Z M 181.882812 193.152344 L 181.882812 252.398438 C 164.488281 252.714844 147.597656 254.488281 132.421875 257.597656 C 126.742188 238.539062 123.265625 216.503906 122.78125 193.152344 Z M 193.152344 193.152344 L 252.253906 193.152344 C 251.769531 216.503906 248.292969 238.539062 242.613281 257.597656 C 227.429688 254.488281 210.542969 252.714844 193.152344 252.398438 Z M 193.152344 181.882812 L 193.152344 122.636719 C 210.507812 122.324219 227.402344 120.570312 242.632812 117.5 C 248.300781 136.542969 251.769531 158.558594 252.253906 181.882812 Z M 193.152344 111.367188 L 193.152344 52.835938 C 211.660156 56.347656 228.222656 76.90625 239.082031 106.734375 C 224.917969 109.496094 209.253906 111.066406 193.152344 111.367188 Z M 181.882812 52.835938 L 181.882812 111.367188 C 165.777344 111.066406 150.113281 109.496094 135.953125 106.734375 C 146.8125 76.90625 163.371094 56.347656 181.882812 52.835938 Z M 181.882812 263.667969 L 181.882812 322.199219 C 163.382812 318.691406 146.835938 298.160156 135.976562 268.367188 C 150.089844 265.566406 165.746094 263.972656 181.882812 263.667969 Z M 193.152344 322.199219 L 193.152344 263.667969 C 209.285156 263.972656 224.9375 265.566406 239.058594 268.367188 C 228.199219 298.15625 211.652344 318.691406 193.152344 322.199219 Z M 263.523438 181.882812 C 263.066406 157.425781 259.636719 134.691406 253.890625 114.914062 C 268.941406 111.003906 281.359375 105.855469 290.324219 99.777344 C 309.386719 122.082031 321.335938 150.621094 322.625 181.882812 Z M 282.53125 91.375 C 274.644531 96.371094 263.605469 100.78125 250.449219 104.15625 C 243.375 84.164062 233.773438 67.894531 222.464844 56.867188 C 245.464844 63.027344 266.070312 75.105469 282.53125 91.375 Z M 124.589844 104.160156 C 111.433594 100.785156 100.394531 96.375 92.503906 91.375 C 108.964844 75.105469 129.570312 63.03125 152.574219 56.871094 C 141.261719 67.894531 131.660156 84.164062 124.589844 104.160156 Z M 92.789062 283.933594 C 100.507812 278.863281 111.464844 274.390625 124.621094 270.972656 C 131.6875 290.921875 141.277344 307.15625 152.570312 318.164062 C 129.699219 312.039062 109.203125 300.0625 92.789062 283.933594 Z M 250.410156 270.972656 C 263.566406 274.390625 274.523438 278.863281 282.246094 283.933594 C 265.828125 300.066406 245.335938 312.042969 222.460938 318.164062 C 233.753906 307.15625 243.339844 290.921875 250.410156 270.972656 Z M 250.410156 270.972656 " fill-opacity="1" fill-rule="nonzero"/></svg>