<svg xmlns="http://www.w3.org/2000/svg" xmlns:xlink="http://www.w3.org/1999/xlink" width="500" zoomAndPan="magnify" viewBox="0 0 375 374.999991" height="500" preserveAspectRatio="xMidYMid meet" version="1.0"><defs><clipPath id="f97ca43cd9"><path d="M 70.035156 32.429688 L 304.785156 32.429688 L 304.785156 342.929688 L 70.035156 342.929688 Z M 70.035156 32.429688 " clip-rule="nonzero"/></clipPath><clipPath id="9a56ce5493"><path d="M 70.035156 135 L 276 135 L 276 342.929688 L 70.035156 342.929688 Z M 70.035156 135 " clip-rule="nonzero"/></clipPath></defs><rect x="-37.5" width="450" fill="#ffffff" y="-37.499999" height="449.999989" fill-opacity="1"/><rect x="-37.5" width="450" fill="#ffffff" y="-37.499999" height="449.999989" fill-opacity="1"/><rect x="-37.5" width="450" fill="#000000" y="-37.499999" height="449.999989" fill-opacity="1"/><g clip-path="url(#f97ca43cd9)"><path fill="#f4f6fc" d="M 304.832031 32.695312 L 126.335938 32.695312 C 95.261719 32.695312 70.070312 57.933594 70.070312 89.070312 L 70.070312 342.75 L 116.542969 133.214844 C 122.265625 107.421875 145.097656 89.070312 171.46875 89.070312 L 257.078125 89.070312 C 283.449219 89.070312 304.832031 67.648438 304.832031 41.222656 L 304.832031 32.695312 " fill-opacity="1" fill-rule="nonzero"/></g><g clip-path="url(#9a56ce5493)"><path fill="#09d8a2" d="M 275.246094 135.355469 L 191.082031 135.355469 C 168.089844 135.355469 147.410156 149.375 138.851562 170.761719 L 70.070312 342.75 L 184.035156 203.914062 C 194.71875 190.894531 210.664062 183.347656 227.492188 183.347656 C 253.863281 183.347656 275.246094 161.929688 275.246094 135.5 L 275.246094 135.355469 " fill-opacity="1" fill-rule="nonzero"/></g></svg>