<svg xmlns="http://www.w3.org/2000/svg" xmlns:xlink="http://www.w3.org/1999/xlink" width="500" zoomAndPan="magnify" viewBox="0 0 375 374.999991" height="500" preserveAspectRatio="xMidYMid meet" version="1.0"><rect x="-37.5" width="450" fill="#ffffff" y="-37.499999" height="449.999989" fill-opacity="1"/><rect x="-37.5" width="450" fill="#000000" y="-37.499999" height="449.999989" fill-opacity="1"/><path fill="#5271ff" d="M 332.742188 246.402344 L 248.9375 37.90625 C 248.113281 35.847656 245.203125 35.847656 244.375 37.90625 L 214.195312 112.957031 C 213.960938 113.546875 213.957031 114.207031 214.191406 114.792969 L 267.628906 248.230469 C 268.003906 249.164062 268.910156 249.777344 269.910156 249.777344 L 330.460938 249.78125 C 332.203125 249.78125 333.394531 248.019531 332.742188 246.402344 Z M 130.695312 37.90625 L 219.992188 260.496094 C 220.226562 261.085938 220.226562 261.742188 219.988281 262.332031 L 189.796875 337.410156 C 188.96875 339.46875 186.058594 339.46875 185.234375 337.410156 L 130.6875 201.710938 C 129.859375 199.652344 126.949219 199.652344 126.121094 201.707031 L 107.414062 248.21875 C 107.039062 249.152344 106.132812 249.765625 105.128906 249.765625 L 44.582031 249.757812 C 42.835938 249.757812 41.648438 247.996094 42.300781 246.378906 L 126.128906 37.902344 C 126.957031 35.847656 129.871094 35.847656 130.695312 37.90625 " fill-opacity="1" fill-rule="nonzero"/></svg>