<svg xmlns="http://www.w3.org/2000/svg" xmlns:xlink="http://www.w3.org/1999/xlink" width="500" zoomAndPan="magnify" viewBox="0 0 375 374.999991" height="500" preserveAspectRatio="xMidYMid meet" version="1.0"><defs><clipPath id="180e93204a"><path d="M 31.402344 7.300781 L 343.402344 7.300781 L 343.402344 368.050781 L 31.402344 368.050781 Z M 31.402344 7.300781 " clip-rule="nonzero"/></clipPath></defs><g clip-path="url(#180e93204a)"><path fill="#ffffff" d="M 187.402344 7.292969 L 31.429688 97.480469 L 31.429688 103.144531 C 31.429688 136.320312 36.910156 169.199219 47.488281 200.425781 C 47.484375 200.425781 47.484375 200.425781 47.480469 200.425781 C 48.992188 204.894531 50.621094 209.324219 52.34375 213.71875 C 52.457031 214.007812 52.570312 214.300781 52.683594 214.59375 C 52.980469 215.339844 53.28125 216.089844 53.585938 216.835938 C 53.703125 217.125 53.816406 217.417969 53.9375 217.710938 L 53.941406 217.710938 C 55.65625 221.90625 57.460938 226.070312 59.363281 230.191406 C 199.457031 183.789062 211.710938 106.824219 211.710938 106.824219 C 180.78125 163.59375 107.339844 187.679688 67.003906 196.699219 C 57.1875 168.75 51.683594 139.105469 51.074219 108.777344 L 187.402344 29.945312 L 323.726562 108.777344 C 321.785156 205.515625 270.066406 295.269531 187.402344 345.332031 C 157.398438 327.164062 131.480469 303.761719 110.53125 276.695312 C 235.066406 189.71875 231.015625 86.167969 231.015625 86.167969 C 199.785156 206.5625 93.578125 248.867188 72.855469 256.066406 C 76.320312 261.992188 79.988281 267.789062 83.835938 273.453125 C 83.972656 273.652344 84.113281 273.851562 84.25 274.054688 C 84.90625 275.015625 85.570312 275.980469 86.238281 276.9375 C 86.257812 276.964844 86.277344 276.992188 86.300781 277.019531 C 88.816406 280.609375 91.402344 284.144531 94.066406 287.613281 C 94.070312 287.609375 94.074219 287.609375 94.074219 287.609375 C 118.128906 318.917969 148.175781 345.375 182.503906 365.222656 L 187.402344 368.054688 L 192.296875 365.222656 C 238.167969 338.699219 276.410156 300.398438 302.894531 254.457031 C 329.371094 208.515625 343.371094 156.191406 343.371094 103.144531 L 343.371094 97.480469 L 187.402344 7.292969 " fill-opacity="1" fill-rule="nonzero"/></g></svg>